HIERARCHY
ROOT Hips
{
	OFFSET 0.00000 0.00000 0.00000
	CHANNELS 6 Xposition Yposition Zposition Zrotation Yrotation Xrotation 
	JOINT LHipJoint
	{
		OFFSET 0 0 0
		CHANNELS 3 Zrotation Yrotation Xrotation
		JOINT LeftHip
		{
			OFFSET 1.62964 -1.40469 0.78906
			CHANNELS 3 Zrotation Yrotation Xrotation
			JOINT LeftKnee
			{
				OFFSET 2.29640 -6.30932 0.00000
				CHANNELS 3 Zrotation Yrotation Xrotation
				JOINT LeftAnkle
				{
					OFFSET 2.29451 -6.30412 0.00000
					CHANNELS 3 Zrotation Yrotation Xrotation
					JOINT LeftToe
					{
						OFFSET 0.03611 -0.09921 1.56387
						CHANNELS 3 Zrotation Yrotation Xrotation
						End Site
						{
							OFFSET 0.00000 -0.00000 0.80291
						}
					}
				}
			}
		}
	}
	JOINT RHipJoint
	{
		OFFSET 0 0 0
		CHANNELS 3 Zrotation Yrotation Xrotation
		JOINT RightHip
		{
			OFFSET -1.73712 -1.40469 0.78906
			CHANNELS 3 Zrotation Yrotation Xrotation
			JOINT RightKnee
			{
				OFFSET -2.28137 -6.26801 0.00000
				CHANNELS 3 Zrotation Yrotation Xrotation
				JOINT RightAnkle
				{
					OFFSET -2.28681 -6.28298 0.00000
					CHANNELS 3 Zrotation Yrotation Xrotation
					JOINT RightToe
					{
						OFFSET -0.15927 -0.43759 1.61103
						CHANNELS 3 Zrotation Yrotation Xrotation
						End Site
						{
							OFFSET -0.00000 -0.00000 0.84630
						}
					}
				}
			}
		}
	}
	JOINT lowerback
	{
		OFFSET 0 0 0
		CHANNELS 3 Zrotation Yrotation Xrotation
		JOINT Chest
		{
			OFFSET -0.04227 2.04338 -0.00225
			CHANNELS 3 Zrotation Yrotation Xrotation
			JOINT Chest2
			{
				OFFSET -0.02148 2.04482 -0.04273
				CHANNELS 3 Zrotation Yrotation Xrotation
				JOINT lowerneck
				{
					OFFSET 0 0 0
					CHANNELS 3 Zrotation Yrotation Xrotation
					JOINT Neck
					{
						OFFSET 0.09180 1.44629 0.19359
						CHANNELS 3 Zrotation Yrotation Xrotation
						JOINT Head
						{
							OFFSET 0.00887 1.40645 0.14750
							CHANNELS 3 Zrotation Yrotation Xrotation
							End Site
							{
								OFFSET -0.00669 1.50671 0.03707
							}
						}
					}
				}
				JOINT LeftCollar
				{
					OFFSET 0 0 0
					CHANNELS 3 Zrotation Yrotation Xrotation
					JOINT LeftShoulder
					{
						OFFSET 2.17674 1.86763 -0.06520
CHANNELS 3 Zrotation Xrotation Yrotation
						JOINT LeftElbow
						{
OFFSET 0 -4.657760 0.000000
CHANNELS 3 Zrotation Xrotation Yrotation
							JOINT LeftWrist
							{
OFFSET 0 -3.555390 0.000000
CHANNELS 3 Zrotation Xrotation Yrotation
								JOINT lhand
								{
									OFFSET 0 0 0
CHANNELS 3 Zrotation Xrotation Yrotation
									JOINT LFingers
									{
OFFSET 0 -0.707260 0.000000
CHANNELS 3 Zrotation Xrotation Yrotation
										End Site
										{
OFFSET 0 -0.570220 0.000000
										}
									}
								}
								JOINT LThumb
								{
OFFSET 0 0.000000 0.000000
CHANNELS 3 Zrotation Xrotation Yrotation
									End Site
									{
OFFSET 0 -0.578920 0.578920
									}
								}
							}
						}
					}
				}
				JOINT RightCollar
				{
					OFFSET 0 0 0
					CHANNELS 3 Zrotation Yrotation Xrotation
					JOINT RightShoulder
					{
						OFFSET -2.80694 1.55459 -0.32496
CHANNELS 3 Zrotation Xrotation Yrotation
						JOINT RightElbow
						{
OFFSET 0 -4.719250 -0.000000
CHANNELS 3 Zrotation Xrotation Yrotation
							JOINT RightWrist
							{
OFFSET 0 -3.569900 0.000000
CHANNELS 3 Zrotation Xrotation Yrotation
								JOINT rhand
								{
									OFFSET 0 0 0
CHANNELS 3 Zrotation Xrotation Yrotation
									JOINT RFingers
									{
OFFSET 0 -0.507760 0.000000
CHANNELS 3 Zrotation Xrotation Yrotation
										End Site
										{
OFFSET 0 -0.409370 0.000000
										}
									}
								}
								JOINT RThumb
								{
OFFSET 0 0.000000 0.000000
CHANNELS 3 Zrotation Xrotation Yrotation
									End Site
									{
OFFSET 0 -0.415620 0.415620
									}
								}
							}
						}
					}
				}
			}
		}
	}
}
MOTION
Frames: 12
Frame Time: 0.008333333333333333
9.862200 16.433105 4.062380 177.149935 0.036944 -160.596002 0.000000 0.000000 0.000000 -8.587012 -21.938668 -70.152933 17.049649 19.789801 81.344647 0.527016 -0.921254 -13.426649 2.324632 -9.508725 -27.402436 0.000000 0.000000 0.000000 19.849888 13.049649 -18.980348 -0.305648 -3.554412 9.826324 -0.731391 0.702857 -15.935756 -1.671133 8.144507 -23.153905 -6.433789 -1.317743 -19.985645 -0.101171 -0.216818 2.083223 3.484673 -0.614321 13.704582 -1.195673 -2.601728 -3.704596 2.172398 -2.397542 21.522562 0.806370 -0.488038 7.227282 0.000000 0.000000 0.000000 5.416256 1.424473 -17.089082 9.401027 -15.797182 1.307186 17.450845 8.425996 10.459769 0.000000 0.000000 0.000000 -7.125000 0.000000 0.000000 -6.787637 19.068751 -4.226903 0.000000 0.000000 0.000000 -1.788152 1.961305 14.948373 -25.263711 -36.472162 -8.446248 -14.428569 1.179834 49.296781 0.000000 0.000000 0.000000 7.125000 0.000000 0.000000 52.029659 75.145251 -39.172152
9.864302 16.435151 3.976865 176.939185 0.104276 -160.559718 0.000000 0.000000 0.000000 -8.243451 -22.219737 -71.048027 16.523033 19.706811 79.785945 0.500225 -0.723490 -13.128961 2.523894 -9.881206 -28.592853 0.000000 0.000000 0.000000 19.673544 13.055367 -18.637597 -0.304215 -3.546054 9.802924 -0.751062 0.683735 -16.158683 -1.691887 8.192330 -23.299953 -6.636283 -1.280559 -19.904037 -0.228978 -0.110217 2.095013 3.487894 -0.574872 13.660275 -1.134338 -1.756596 -3.622279 2.399828 -2.728926 21.426696 0.778081 -1.165416 7.188130 0.000000 0.000000 0.000000 5.473143 1.690798 -15.718994 9.107435 -15.331376 1.228494 18.415696 8.336457 11.763500 0.000000 0.000000 0.000000 -7.125000 0.000000 0.000000 -6.120049 17.640328 -3.994289 0.000000 0.000000 0.000000 -1.872472 1.954259 15.556460 -25.722485 -36.933072 -8.720505 -15.041227 1.862346 49.890912 0.000000 0.000000 0.000000 7.125000 0.000000 0.000000 53.687291 75.655310 -41.105538
9.868466 16.439520 3.888690 176.780341 0.035767 -160.563811 0.000000 0.000000 0.000000 -7.893464 -22.450501 -71.708318 15.954258 19.602720 78.095158 0.462292 -0.802923 -12.589881 2.332897 -9.527058 -27.458850 0.000000 0.000000 0.000000 19.561323 13.386557 -18.124574 -0.305142 -3.551403 9.817807 -0.780093 0.139004 -16.647513 -1.674774 8.153053 -23.179870 -6.729850 -1.204744 -19.751961 -0.386957 0.016188 2.075062 3.400551 -0.513579 13.533381 -1.396998 -0.768145 -3.691034 3.109255 -3.213446 21.575854 0.935055 -2.002192 7.270406 0.000000 0.000000 0.000000 5.636644 2.110344 -14.840514 8.917167 -15.028245 1.178561 19.541219 7.925751 13.096059 0.000000 0.000000 0.000000 -7.125000 0.000000 0.000000 -5.361842 16.153294 -3.674737 0.000000 0.000000 0.000000 -1.842998 1.958337 15.893821 -25.966886 -37.175966 -8.867655 -15.220148 2.190200 51.073930 0.000000 0.000000 0.000000 7.125000 0.000000 0.000000 57.781599 76.290794 -45.222978
9.872523 16.437117 3.791138 176.738290 0.129557 -160.645778 0.000000 0.000000 0.000000 -7.492321 -22.536195 -72.295206 15.482080 19.503003 76.684516 0.444476 -0.930699 -12.303963 2.283793 -9.433126 -27.160239 0.000000 0.000000 0.000000 19.621945 13.478379 -17.681844 -0.314527 -3.605331 9.968855 -0.817309 0.013718 -17.085181 -1.639441 8.070753 -22.929280 -6.796716 -1.164285 -19.778332 -0.384543 0.098263 2.193788 3.466993 -0.486998 13.680067 -1.521133 -0.712509 -3.544848 3.008468 -3.088177 21.471516 0.935079 -1.958629 7.207196 0.000000 0.000000 0.000000 5.419177 2.062236 -13.113224 8.601191 -14.522421 1.098118 19.038606 9.302168 12.693067 0.000000 0.000000 0.000000 -7.125000 0.000000 0.000000 -5.699302 16.620223 -3.849735 0.000000 0.000000 0.000000 -2.078041 1.664685 16.349413 -26.001692 -37.210371 -8.888649 -16.308674 3.043954 51.140203 0.000000 0.000000 0.000000 7.125000 0.000000 0.000000 57.409106 76.744168 -45.356995
9.873396 16.434311 3.699079 176.622571 0.212249 -160.682110 0.000000 0.000000 0.000000 -7.282069 -22.629102 -72.676962 14.970044 19.381528 75.145846 0.452323 -1.008814 -12.393530 2.689043 -10.173494 -29.540704 0.000000 0.000000 0.000000 19.568181 13.375303 -17.398968 -0.327400 -3.677517 10.171001 -0.868268 0.181182 -17.554427 -1.686416 8.179566 -23.261038 -6.938286 -1.120194 -19.813264 -0.435238 0.204265 2.256832 3.522913 -0.451330 13.764035 -1.627256 -0.799607 -3.680845 3.030441 -3.256268 21.801702 0.943211 -2.055516 7.345262 0.000000 0.000000 0.000000 5.357442 2.361619 -11.968559 8.439912 -14.263410 1.057909 18.592980 10.193439 12.305839 0.000000 0.000000 0.000000 -7.125000 0.000000 0.000000 -6.000518 17.063118 -3.997869 0.000000 0.000000 0.000000 -2.243766 1.482675 16.813252 -26.071678 -37.279388 -8.931033 -16.371409 3.287915 51.808708 0.000000 0.000000 0.000000 7.125000 0.000000 0.000000 60.034271 77.039890 -47.966361
9.868420 16.432662 3.601050 176.492715 0.291186 -160.773083 0.000000 0.000000 0.000000 -7.169681 -22.754420 -72.704517 14.403976 19.231959 73.434401 0.438923 -1.249159 -12.142432 2.539458 -9.909201 -28.683332 0.000000 0.000000 0.000000 19.527649 13.152452 -16.985263 -0.330923 -3.697325 10.226652 -0.904724 0.294805 -17.883785 -1.773477 8.377451 -23.866428 -7.047695 -1.088129 -19.914801 -0.503561 0.301006 2.406733 3.537938 -0.423024 13.991062 -1.538844 -0.726582 -3.730353 2.852544 -3.092419 21.704162 0.883661 -1.974658 7.313930 0.000000 0.000000 0.000000 5.345809 2.392308 -11.109923 8.334545 -14.093599 1.032045 18.574872 10.454879 12.361772 0.000000 0.000000 0.000000 -7.125000 0.000000 0.000000 -6.014099 17.006237 -4.014506 0.000000 0.000000 0.000000 -2.350328 1.320783 17.118641 -26.057673 -37.265673 -8.922583 -15.385251 2.513098 50.760663 0.000000 0.000000 0.000000 7.125000 0.000000 0.000000 56.496665 76.222449 -44.032596
9.873668 16.427972 3.507571 176.370417 0.403359 -160.802932 0.000000 0.000000 0.000000 -7.063980 -22.765437 -72.777643 13.897902 19.082217 71.891981 0.429086 -1.725570 -11.896533 2.349868 -9.559652 -27.562212 0.000000 0.000000 0.000000 19.481684 13.354077 -16.468019 -0.330266 -3.693612 10.216236 -0.937512 -0.235502 -18.392147 -1.973088 8.808736 -25.199598 -7.276797 -1.012126 -19.852333 -0.578520 0.464621 2.459948 3.633550 -0.365021 13.999222 -1.514053 -0.746094 -3.817966 2.843957 -3.150002 21.907192 0.869680 -2.005741 7.397464 0.000000 0.000000 0.000000 5.428372 2.375773 -10.540126 8.274565 -13.996943 1.017525 18.314173 10.772619 12.281923 0.000000 0.000000 0.000000 -7.125000 0.000000 0.000000 -6.194029 17.111227 -4.121702 0.000000 0.000000 0.000000 -2.372997 1.037423 17.327808 -26.008336 -37.216992 -8.892732 -14.571608 2.289849 51.489303 0.000000 0.000000 0.000000 7.125000 0.000000 0.000000 59.835497 76.167828 -46.956578
9.875861 16.421307 3.408675 176.308795 0.332080 -160.896160 0.000000 0.000000 0.000000 -6.932792 -22.924763 -72.624006 13.432737 18.932380 70.463904 0.405635 -2.006171 -11.502159 2.723926 -10.231285 -29.731703 0.000000 0.000000 0.000000 19.529929 13.384048 -15.922226 -0.335137 -3.720405 10.291372 -0.989215 -0.661027 -19.047453 -2.077287 9.025123 -25.873992 -7.355559 -0.993350 -19.853035 -0.656568 0.523569 2.545160 3.607468 -0.346127 14.094674 -1.231752 -0.700912 -3.442587 2.676512 -3.042539 21.534345 0.782758 -1.942617 7.199796 0.000000 0.000000 0.000000 5.635342 2.406246 -10.282399 8.192742 -13.864800 0.997786 18.365404 10.539814 12.682372 0.000000 0.000000 0.000000 -7.125000 0.000000 0.000000 -6.165161 16.689832 -4.159157 0.000000 0.000000 0.000000 -2.351671 0.964422 17.772510 -26.090971 -37.298416 -8.942763 -14.389887 2.741581 54.560088 0.000000 0.000000 0.000000 7.125000 0.000000 0.000000 72.426219 77.014108 -59.326302
9.873446 16.415428 3.305680 176.281846 0.476488 -160.918000 0.000000 0.000000 0.000000 -6.839261 -22.933907 -72.361087 12.934836 18.758321 68.922952 0.358431 -1.797950 -10.825501 2.793167 -10.352304 -30.125489 0.000000 0.000000 0.000000 19.588875 13.292861 -15.629331 -0.350890 -3.805993 10.531421 -1.030037 -0.094266 -19.224868 -1.953636 8.768605 -25.074147 -7.392677 -0.958582 -19.950013 -0.736268 0.594641 2.543022 3.560369 -0.315989 14.141729 -1.408728 -0.750511 -3.160667 2.804958 -3.138278 21.463139 0.850376 -2.002041 7.132642 0.000000 0.000000 0.000000 5.750268 2.807499 -10.361719 8.314065 -14.060594 1.027061 18.497857 10.086846 12.924566 0.000000 0.000000 0.000000 -7.125000 0.000000 0.000000 -6.077993 16.426199 -4.134743 0.000000 0.000000 0.000000 -2.359857 0.975259 18.276918 -26.034218 -37.242408 -8.908334 -14.529648 2.589315 51.299536 0.000000 0.000000 0.000000 7.125000 0.000000 0.000000 59.133081 76.085803 -46.237244
9.867801 16.408560 3.200037 176.164194 0.558505 -160.888831 0.000000 0.000000 0.000000 -6.891301 -23.054725 -72.102000 12.518131 18.600740 67.621460 0.337860 -1.910272 -10.481732 2.621049 -10.054686 -29.154126 0.000000 0.000000 0.000000 19.537947 12.888905 -15.227912 -0.337890 -3.735288 10.333148 -1.073825 0.189524 -19.532638 -2.117103 9.104229 -26.123047 -7.526176 -0.950009 -20.125741 -0.790027 0.664177 2.602254 3.597874 -0.301323 14.309032 -1.466017 -0.661994 -3.157275 2.748733 -3.027905 21.635944 0.847967 -1.965424 7.186094 0.000000 0.000000 0.000000 5.770500 2.971247 -10.431330 8.473595 -14.317540 1.066160 18.331314 10.003619 12.211964 0.000000 0.000000 0.000000 -7.125000 0.000000 0.000000 -6.181129 17.182454 -4.103239 0.000000 0.000000 0.000000 -2.430897 0.832030 18.683613 -26.041084 -37.249193 -8.912558 -12.970317 1.899527 53.565758 0.000000 0.000000 0.000000 7.125000 0.000000 0.000000 68.652964 76.233898 -54.973078
9.861216 16.401853 3.092948 176.097873 0.543721 -160.849144 0.000000 0.000000 0.000000 -6.955314 -23.187632 -71.811715 12.135526 18.447110 66.417363 0.324244 -2.026225 -10.243227 2.653620 -10.112009 -29.340316 0.000000 0.000000 0.000000 19.530441 12.532885 -14.705247 -0.314367 -3.604392 9.966316 -1.102704 0.376905 -19.734375 -2.148547 9.167454 -26.321512 -7.578865 -0.910305 -20.296270 -0.852604 0.752769 2.616818 3.585694 -0.268090 14.417578 -1.393692 -0.683062 -2.921733 2.563472 -3.057625 21.682996 0.775238 -2.000474 7.156392 0.000000 0.000000 0.000000 5.867584 2.954717 -10.133369 8.456019 -14.289310 1.061860 18.321633 10.463503 11.877615 0.000000 0.000000 0.000000 -7.125000 0.000000 0.000000 -6.183147 17.531577 -4.057117 0.000000 0.000000 0.000000 -2.430289 0.808716 19.025780 -26.080487 -37.288072 -8.936387 -13.475556 2.515830 53.268222 0.000000 0.000000 0.000000 7.125000 0.000000 0.000000 67.267972 76.372539 -53.815979
9.856909 16.392796 2.987191 176.179531 0.465415 -160.560349 0.000000 0.000000 0.000000 -6.747465 -23.272578 -71.831937 11.821119 18.313874 65.420495 0.303019 -2.168857 -9.871037 2.698909 -10.190839 -29.596936 0.000000 0.000000 0.000000 19.656589 12.373470 -14.518127 -0.314456 -3.604956 9.967800 -1.148691 0.683147 -20.049670 -1.903781 8.662008 -24.744193 -7.538627 -0.932620 -20.610430 -0.863857 0.736064 2.549595 3.547202 -0.276388 14.525829 -1.346822 -0.744039 -3.206996 2.383400 -3.161502 22.089177 0.694063 -2.068705 7.339579 0.000000 0.000000 0.000000 5.934029 3.445418 -10.523302 8.736417 -14.739307 1.132152 18.842698 9.748821 12.465608 0.000000 0.000000 0.000000 -7.125000 0.000000 0.000000 -5.830394 16.875057 -3.906822 0.000000 0.000000 0.000000 -2.420987 0.739276 19.513359 -26.103065 -37.310273 -8.950030 -12.902705 2.279821 53.768064 0.000000 0.000000 0.000000 7.125000 0.000000 0.000000 69.487091 76.279679 -55.767698
